<!-- Generator: Adobe Illustrator 22.0.1, SVG Export Plug-In  -->
<svg version="1.1"
	 xmlns="http://www.w3.org/2000/svg" xmlns:xlink="http://www.w3.org/1999/xlink" xmlns:a="http://ns.adobe.com/AdobeSVGViewerExtensions/3.0/"
	 x="0px" y="0px" width="677.8px" height="193.8px" viewBox="0 0 677.8 193.8" style="enable-background:new 0 0 677.8 193.8;"
	 xml:space="preserve">
<style type="text/css">
	.st0{fill:#FFFFFF;}
</style>
<defs>
</defs>
<g>
	<polygon class="st0" points="452.8,0.1 202,0.1 173.5,33.8 240.3,33.8 240.3,193.1 278.6,193.1 278.6,33.8 481.3,33.8 	"/>
	<polygon class="st0" points="432,77.6 338.1,77.6 338.1,111.6 460.8,111.6 	"/>
	<polygon class="st0" points="338.1,159.1 338.1,193.1 481.7,193.1 452.6,159.1 	"/>
	<polygon class="st0" points="558.5,159.1 558.5,33.9 677.8,33.9 649.3,0.1 519.9,0.1 519.9,193.1 677.8,193.8 677.4,159.1 	"/>
	<polygon class="st0" points="120,96.5 38.4,0 0,0 0,147.6 38.4,193 38.4,54.1 120,150.6 182.2,77.6 135.8,77.9 	"/>
</g>
</svg>
